<svg version="1.1" id="Layer_1" xmlns="http://www.w3.org/2000/svg" xmlns:xlink="http://www.w3.org/1999/xlink" x="0px" y="0px"
	 width="100%" viewBox="0 0 505 202" enable-background="new 0 0 505 202" xml:space="preserve">

<path fill="#DFDAE1" opacity="1.000000" stroke="none" 
	d="
M84.060410,101.285843 
	C93.401657,97.306007 102.395279,93.480789 111.350792,89.568344 
	C118.372017,86.500938 119.193390,80.392937 112.792923,75.737343 
	C111.597984,85.041939 104.831604,88.246338 97.183365,90.968460 
	C89.902763,93.559715 82.910240,96.960358 75.218536,100.249992 
	C75.218536,90.790428 75.136528,82.159561 75.321541,73.534424 
	C75.344864,72.447395 76.541763,70.866783 77.587456,70.406326 
	C83.485649,67.809166 89.352417,64.895897 95.542015,63.303822 
	C98.861626,62.449959 103.060776,63.377163 106.401535,64.682114 
	C110.105537,66.128952 113.229378,69.012344 116.702187,71.110741 
	C122.529846,74.632004 124.750389,80.927551 122.310341,87.435074 
	C120.804085,91.452202 122.942451,95.705803 127.147018,97.056053 
	C133.981262,99.250809 137.421677,102.970032 137.829132,108.603882 
	C138.272232,114.730598 135.493607,119.271721 128.981873,122.154869 
	C116.254761,127.789955 103.448555,133.247009 90.651649,138.722977 
	C89.183395,139.351273 87.565880,139.630722 85.795982,140.135071 
	C85.371605,136.685928 84.991669,133.597992 84.548584,129.996765 
	C81.017067,131.455673 78.462524,132.510986 75.219749,133.850616 
	C75.219749,124.418991 75.106018,115.508110 75.370422,106.608459 
	C75.401817,105.551628 77.379181,104.354950 78.670067,103.584068 
	C80.225136,102.655434 82.010628,102.112671 84.060410,101.285843 
M100.900444,100.295906 
	C95.296738,102.812256 89.643196,105.226768 84.128601,107.925255 
	C82.932098,108.510750 81.522919,110.062447 81.434151,111.259750 
	C81.111160,115.616249 81.306641,120.011192 81.306641,124.404800 
	C86.575867,123.952515 85.661697,120.362076 85.330345,117.628555 
	C84.811394,113.347389 86.218246,111.114052 90.399284,109.597885 
	C97.734573,106.937889 104.775055,103.472649 112.061974,100.663681 
	C113.225212,100.215271 115.028580,101.427483 116.536018,101.871979 
	C115.875496,103.195930 115.485840,104.803818 114.478790,105.764534 
	C113.457222,106.739113 111.834892,107.095421 110.460129,107.686325 
	C104.981064,110.041336 99.408012,112.204544 94.070961,114.845413 
	C92.622162,115.562309 91.879082,117.705429 90.812096,119.193947 
	C91.245308,119.529884 91.678528,119.865822 92.111740,120.201752 
	C95.472992,118.853409 98.863304,117.572556 102.188538,116.140556 
	C106.922218,114.102020 111.618622,111.975647 116.311226,109.843361 
	C120.331795,108.016441 122.189621,105.163803 120.603836,100.660248 
	C119.232666,96.766151 115.912666,95.032196 111.392975,96.355743 
	C108.063309,97.330795 104.867310,98.762291 100.900444,100.295906 
M87.457375,77.341049 
	C90.784492,75.862152 94.038834,74.163406 97.478561,73.024673 
	C98.667877,72.630943 100.318001,73.629173 101.757637,73.991592 
	C101.182838,75.480087 101.001465,77.421974 99.936745,78.345848 
	C98.506195,79.587181 96.447861,80.221329 94.561256,80.794220 
	C91.534485,81.713341 90.641129,83.521576 91.736603,86.613220 
	C94.933578,85.330956 98.164558,84.131317 101.315437,82.749092 
	C106.251076,80.583961 108.123100,76.681885 106.375343,72.504982 
	C104.775459,68.681480 100.657494,67.106209 95.834496,68.956635 
	C90.907684,70.846893 86.149185,73.175858 81.362061,75.292839 
	C81.362061,80.514359 81.362061,85.472252 81.362061,90.430153 
	C81.813622,90.666191 82.265190,90.902229 82.716751,91.138268 
	C83.627899,89.494446 84.904800,87.946381 85.365967,86.184761 
	C86.089203,83.422066 86.261765,80.515205 87.457375,77.341049 
M113.145370,122.699677 
	C118.000366,120.580841 123.074471,118.835640 127.611588,116.174797 
	C129.669281,114.968040 131.619217,112.043510 131.857956,109.717583 
	C132.079315,107.560577 129.956390,105.162971 128.865738,102.871307 
	C128.374084,103.000366 127.882431,103.129433 127.390778,103.258499 
	C126.473534,109.673920 122.875587,113.763947 117.053459,116.143082 
	C109.552261,119.208328 102.197029,122.640144 94.641937,125.559555 
	C91.639877,126.719597 90.784668,128.253250 91.902161,131.598602 
	C98.803375,128.724792 105.629066,125.882431 113.145370,122.699677 
z"/>
<path fill="#6729A7" opacity="1.000000" stroke="none" 
	d="
M153.962036,133.929703 
	C154.731903,133.625977 155.501785,133.322266 156.859406,133.179611 
	C157.645905,133.922119 157.844650,134.503540 158.043396,135.084976 
	C157.710373,135.556976 157.377365,136.028961 156.746735,136.893341 
	C156.233505,137.497437 156.096054,137.751480 156.036804,138.047836 
	C156.036804,138.047836 155.997040,138.004944 155.792023,138.137421 
	C155.404160,138.557312 155.221329,138.844742 155.038483,139.132156 
	C154.579697,139.695007 154.120911,140.257874 153.138458,141.082764 
	C152.420868,141.914627 152.226959,142.484497 152.033051,143.054352 
	C151.566666,143.643372 151.100281,144.232376 150.134918,145.034180 
	C149.438293,145.521225 149.240646,145.795471 149.042999,146.069733 
	C149.042999,146.069733 149.005539,146.004669 148.806625,146.130432 
	C148.417862,146.531219 148.228012,146.806229 148.038162,147.081238 
	C148.038162,147.081238 148.012482,147.005051 147.731323,147.042572 
	C146.976654,147.429230 146.503143,147.778397 146.029648,148.127563 
	C140.216217,154.550705 132.788696,158.400055 124.626366,160.604019 
	C101.097092,166.957291 80.037064,161.719528 62.701908,144.830170 
	C53.190445,135.563339 47.792946,123.641937 45.860794,110.039795 
	C42.877228,89.035828 50.191414,72.062531 64.836914,57.008778 
	C65.567108,56.498375 65.764702,56.231659 65.962296,55.964943 
	C65.962296,55.964947 65.999550,56.000000 66.201920,55.881447 
	C66.679848,55.571545 66.864716,55.314869 66.958908,54.992867 
	C66.958908,54.992867 66.978920,54.978939 67.203369,54.863739 
	C67.697426,54.547283 67.875237,54.284004 67.961243,53.958702 
	C67.961243,53.958702 67.998779,54.000153 68.186905,53.903648 
	C68.641014,53.656246 68.841476,53.443577 68.976425,53.169144 
	C68.976425,53.169144 69.435463,53.032066 70.032936,53.001877 
	C71.408432,52.299500 72.186447,51.627312 72.964470,50.955128 
	C72.964470,50.955128 73.004494,50.991417 73.204193,50.875317 
	C73.684891,50.557663 73.873558,50.290821 73.969887,49.958694 
	C73.969887,49.958694 73.997070,50.000931 74.283096,49.966576 
	C75.033539,49.595104 75.497948,49.257988 75.962364,48.920876 
	C75.962364,48.920876 75.993156,48.997345 76.348175,48.987747 
	C77.820396,49.677494 78.937607,50.376839 80.054817,51.076183 
	C80.054817,51.076183 79.996643,51.014503 79.688332,51.022614 
	C78.586357,51.634399 77.792686,52.238079 76.999023,52.841755 
	C67.375443,59.476730 59.623787,67.548447 54.706535,78.473961 
	C48.092186,93.170227 48.134449,107.770798 53.838078,122.478310 
	C59.847286,137.973785 70.804581,148.887573 86.245499,154.940369 
	C90.718674,156.693817 95.698090,157.508606 100.518906,157.948425 
	C110.327354,158.843292 120.189331,158.790085 129.199051,153.995316 
	C134.075302,151.400299 138.624557,148.190811 143.853363,145.007751 
	C144.576630,144.488907 144.767853,144.220871 144.959076,143.952820 
	C144.959076,143.952820 145.000000,143.994995 145.287003,143.958435 
	C146.039429,143.573578 146.504852,143.225266 146.970276,142.876953 
	C148.408875,140.999664 149.847473,139.122391 151.844925,136.947876 
	C152.582840,136.083054 152.761902,135.515472 152.940964,134.947876 
	C152.940964,134.947876 153.000000,134.983994 153.199158,134.864685 
	C153.586212,134.473495 153.774124,134.201599 153.962036,133.929703 
z"/>
<path fill="#ECECF0" opacity="1.000000" stroke="none" 
	d="
M412.118866,113.489151 
	C413.198456,104.677994 414.046661,96.261024 415.295471,87.903931 
	C415.495697,86.563789 417.422424,84.631561 418.668304,84.538193 
	C419.900299,84.445869 422.032318,86.092041 422.456390,87.401024 
	C423.768860,91.452286 424.455872,95.706184 425.750946,101.521500 
	C427.315674,99.353699 428.515045,98.291321 428.937103,96.978958 
	C429.742889,94.473434 430.388062,91.847153 430.588928,89.231758 
	C430.923706,84.873718 433.005035,83.398865 437.666595,84.677979 
	C439.135590,95.950073 440.641113,107.502266 442.203674,119.492355 
	C439.954956,119.492355 438.071747,119.492355 435.719971,119.492355 
	C435.123596,115.901665 434.482727,112.043266 433.841858,108.184868 
	C433.528351,108.135185 433.214874,108.085503 432.901367,108.035828 
	C431.844696,111.864456 430.788055,115.693092 429.683563,119.694916 
	C427.967346,119.694916 426.349060,119.694916 424.193939,119.694916 
	C423.155640,116.014053 422.085510,112.220367 421.015381,108.426689 
	C420.612152,108.465736 420.208893,108.504776 419.805664,108.543823 
	C419.176239,112.224144 418.546844,115.904472 417.890411,119.742767 
	C415.953674,119.742767 414.175354,119.742767 411.721252,119.742767 
	C411.828918,117.640030 411.924561,115.771606 412.118866,113.489151 
z"/>
<path fill="#E8E9ED" opacity="1.000000" stroke="none" 
	d="
M237.319839,108.652618 
	C236.430557,107.415085 235.632065,106.569458 233.950272,104.788383 
	C233.950272,110.590996 233.950272,114.995262 233.950272,119.355347 
	C229.343094,120.664177 227.103622,119.925392 227.308655,114.735817 
	C227.649841,106.099709 227.296539,97.437599 227.533020,88.794571 
	C227.574768,87.268883 228.705933,85.047523 229.963074,84.431740 
	C232.573547,83.153069 234.015884,84.945419 234.947464,87.486107 
	C236.438339,91.552078 238.252823,95.499382 239.930511,99.496857 
	C240.348770,99.398956 240.767014,99.301064 241.185272,99.203163 
	C241.185272,94.384796 241.185272,89.566429 241.185272,84.462967 
	C243.594467,84.462967 245.482239,84.462967 247.664322,84.462967 
	C247.664322,96.114357 247.664322,107.667870 247.664322,119.237793 
	C243.811493,120.874260 241.596039,119.494827 240.282547,115.918442 
	C239.427246,113.589661 238.374771,111.333313 237.319839,108.652618 
z"/>
<path fill="#EFEFF2" opacity="1.000000" stroke="none" 
	d="
M380.825684,115.294220 
	C381.381683,116.884003 381.801666,118.102165 382.213745,119.297386 
	C373.181732,123.081291 374.207306,113.828941 369.842316,110.279099 
	C369.561340,113.660507 369.319366,116.572235 369.059601,119.698479 
	C366.907959,119.698479 365.137268,119.698479 362.722992,119.698479 
	C362.722992,108.114090 362.722992,96.581810 362.722992,84.570145 
	C368.839417,84.518547 375.124146,82.523323 379.293457,88.610634 
	C382.513062,93.311325 381.103271,98.729614 375.574585,104.862640 
	C377.244873,108.147621 378.967255,111.535110 380.825684,115.294220 
M373.477051,98.575356 
	C374.959625,92.971725 374.256775,91.685097 369.370789,91.394669 
	C369.370789,94.452148 369.370789,97.498512 369.370789,101.212906 
	C370.866333,100.404686 371.946106,99.821144 373.477051,98.575356 
z"/>
<path fill="#E8E8EC" opacity="1.000000" stroke="none" 
	d="
M198.634933,118.002327 
	C194.588135,118.656822 190.912964,119.169060 186.769547,119.746559 
	C186.769547,107.553780 186.769547,96.059105 186.769547,84.418129 
	C192.229385,84.061455 197.505783,83.094528 200.823563,88.007530 
	C203.573578,92.079758 203.317612,96.448929 199.832336,100.208313 
	C205.406723,106.803146 205.089645,112.715561 198.634933,118.002327 
M196.173340,105.249611 
	C194.844879,103.510155 193.520004,102.892624 193.162186,105.749451 
	C192.878036,108.018005 193.104935,110.350563 193.104935,112.897942 
	C197.646378,111.631203 196.696686,108.676392 196.173340,105.249611 
z"/>
<path fill="#ECECEF" opacity="1.000000" stroke="none" 
	d="
M391.446838,119.652985 
	C389.600555,119.691010 388.143524,119.691010 386.052307,119.691010 
	C388.755249,107.627533 391.337372,96.103340 393.872528,84.788727 
	C399.119202,83.200241 400.971924,85.148750 401.779022,90.021118 
	C403.181732,98.489426 405.402618,106.820076 407.142609,115.236946 
	C407.407959,116.520561 406.933685,117.957077 406.801514,119.322876 
	C405.090851,119.148819 402.838043,119.612244 401.759399,118.694946 
	C395.757294,113.590721 395.678040,113.490791 391.446838,119.652985 
z"/>
<path fill="#EAEAF1" opacity="1.000000" stroke="none" 
	d="
M331.823273,119.823784 
	C320.164856,119.965309 308.881653,119.965309 296.541748,119.965309 
	C302.613739,107.707016 308.403564,96.018333 314.633636,83.440857 
	C317.061829,88.171089 319.176361,92.072655 321.092560,96.069313 
	C324.852905,103.912315 328.502869,111.808243 331.823273,119.823784 
M304.968048,110.544632 
	C304.076111,112.434204 303.184174,114.323769 302.296143,116.205048 
	C310.803833,116.205048 318.834015,116.205048 326.864166,116.205048 
	C326.895905,115.602982 326.927612,115.000908 326.959351,114.398842 
	C320.555176,113.149971 313.868042,114.433609 306.648041,113.612999 
	C309.355652,108.187950 311.829224,103.231857 314.745117,97.389519 
	C316.616394,101.260674 318.125183,104.381912 319.580261,107.392090 
	C316.602142,108.046204 314.247192,108.563446 311.892273,109.080688 
	C312.011780,109.627785 312.131287,110.174881 312.250793,110.721977 
	C316.088623,110.721977 319.926483,110.721977 324.521271,110.721977 
	C321.172760,104.125740 318.092010,98.056915 314.688721,91.352707 
	C311.284790,98.048599 308.279846,103.959625 304.968048,110.544632 
z"/>
<path fill="#E7E7EC" opacity="1.000000" stroke="none" 
	d="
M358.673340,107.245667 
	C358.657501,109.041336 358.643982,110.373825 358.641205,111.706322 
	C358.624512,119.674515 354.794220,122.236908 347.261017,119.317276 
	C340.414612,116.663834 335.999969,107.629082 337.241241,98.811378 
	C338.293884,91.333817 344.882172,84.729469 351.976746,84.039963 
	C358.050690,83.449638 358.667999,84.237457 357.520813,91.285789 
	C353.097107,90.556572 348.504120,89.722466 345.835693,94.708138 
	C342.806976,100.367073 343.557465,105.965118 346.871460,111.202896 
	C347.528381,112.241112 349.246307,112.704903 350.570862,113.144791 
	C350.847076,113.236519 352.020142,112.000366 351.962250,111.464554 
	C351.798218,109.947067 351.339935,108.421867 350.753235,107.000549 
	C350.157227,105.556572 349.269897,104.232841 348.510162,102.856445 
	C349.914612,102.339058 351.280457,101.589264 352.730835,101.348351 
	C356.896423,100.656410 359.667999,101.723457 358.673340,107.245667 
z"/>
<path fill="#EBEBEF" opacity="1.000000" stroke="none" 
	d="
M222.687653,118.650711 
	C218.348206,119.061638 214.264877,119.330505 210.193008,119.210518 
	C209.461105,119.188957 208.173843,117.572464 208.161835,116.678650 
	C208.019196,106.067879 208.069962,95.454514 208.069962,84.450417 
	C213.206757,84.450417 217.937698,84.450417 222.720108,84.450417 
	C224.388046,90.013741 224.148987,90.671501 218.715042,90.605736 
	C213.557648,90.543304 214.970917,93.839935 214.795746,96.579300 
	C223.945007,98.124519 223.945007,98.124519 222.409958,103.656052 
	C220.068436,103.770111 217.637619,103.888527 214.970276,104.018456 
	C214.970276,106.655960 214.970276,109.084152 214.970276,111.815002 
	C218.134171,113.208969 225.861908,109.590256 222.687653,118.650711 
z"/>
<path fill="#6929AA" opacity="1.000000" stroke="none" 
	d="
M137.096420,48.963223 
	C149.001389,54.803059 156.983322,64.471436 162.459229,76.148087 
	C168.035934,88.039703 169.768860,100.717178 166.861206,113.629974 
	C165.834137,118.191109 163.363129,122.427101 161.551376,126.811546 
	C160.982758,126.621895 160.414124,126.432243 159.845505,126.242592 
	C160.264664,123.454979 160.302658,120.543587 161.161560,117.898781 
	C170.434372,89.345192 154.120773,60.545338 130.440598,49.743591 
	C130.146667,49.609509 129.905411,49.359959 129.284042,48.703026 
	C128.975311,47.143890 129.022095,46.046032 129.068878,44.948177 
	C129.068878,44.948177 129.004837,44.986534 129.175613,45.280819 
	C130.918823,46.033047 132.491272,46.490986 134.063705,46.948925 
	C134.063705,46.948925 133.993515,46.983994 134.066254,47.308838 
	C135.124786,48.076859 136.110611,48.520039 137.096420,48.963223 
z"/>
<path fill="#E8E8ED" opacity="1.000000" stroke="none" 
	d="
M259.661865,95.856056 
	C262.238922,98.480324 264.806793,100.597351 266.995575,103.052345 
	C270.683655,107.188972 270.984985,112.638115 268.026245,116.232018 
	C265.011841,119.893524 257.765106,121.656769 253.986710,118.884415 
	C252.652618,117.905563 252.964737,114.683136 252.352127,111.619026 
	C254.520813,112.392273 255.104736,112.755341 255.706161,112.787125 
	C257.888153,112.902397 260.922974,113.833328 262.090912,112.765907 
	C264.783997,110.304565 262.889038,107.745613 260.597595,105.667412 
	C258.752075,103.993607 257.120636,102.081413 255.254669,100.432961 
	C251.790588,97.372711 252.060852,93.586464 253.467407,89.911835 
	C254.871567,86.243469 257.921417,84.265976 261.925903,84.068214 
	C267.569031,83.789528 268.529785,85.330025 266.047821,90.867538 
	C263.509308,91.735023 257.177673,87.654823 259.661865,95.856056 
z"/>
<path fill="#E8E8ED" opacity="1.000000" stroke="none" 
	d="
M289.533661,90.694992 
	C288.177856,91.863655 286.570496,93.002373 286.533020,94.190598 
	C286.319824,100.951561 286.500244,107.724358 286.501556,114.493126 
	C286.501892,116.110504 286.329773,117.727921 286.242828,119.243202 
	C279.799500,120.361626 279.524872,120.136055 279.652527,114.277718 
	C279.789490,107.990837 279.961639,101.704384 280.042511,95.416771 
	C280.074982,92.887909 280.053253,90.622025 276.287323,90.400604 
	C275.207642,90.337135 274.307709,87.216576 272.774414,84.533691 
	C280.191681,84.533691 286.022522,84.533691 293.157684,84.533691 
	C291.891907,87.006279 290.949524,88.847092 289.533661,90.694992 
z"/>
<path fill="#682CA5" opacity="1.000000" stroke="none" 
	d="
M128.869751,44.635555 
	C129.022095,46.046032 128.975311,47.143890 128.967651,48.540741 
	C122.288475,47.557713 115.618507,45.817947 108.840408,45.102272 
	C98.977142,44.060833 89.726372,46.981270 80.432877,51.037132 
	C78.937607,50.376839 77.820396,49.677494 76.319962,48.957668 
	C92.703239,38.125256 110.472420,38.772427 128.869751,44.635555 
z"/>
<path fill="#682CA5" opacity="1.000000" stroke="none" 
	d="
M133.888702,46.641510 
	C132.491272,46.490986 130.918823,46.033047 129.187225,45.245346 
	C130.589951,45.388428 132.151825,45.861263 133.888702,46.641510 
z"/>
<path fill="#682CA5" opacity="1.000000" stroke="none" 
	d="
M77.321945,52.888153 
	C77.792686,52.238079 78.586357,51.634399 79.726135,51.041649 
	C79.263123,51.679901 78.454002,52.307224 77.321945,52.888153 
z"/>
<path fill="#682CA5" opacity="1.000000" stroke="none" 
	d="
M72.644608,50.998283 
	C72.186447,51.627312 71.408432,52.299500 70.269867,52.966614 
	C70.714455,52.321510 71.519600,51.681473 72.644608,50.998283 
z"/>
<path fill="#682CA5" opacity="1.000000" stroke="none" 
	d="
M136.955063,48.669174 
	C136.110611,48.520039 135.124786,48.076859 134.093369,47.280296 
	C134.969742,47.409653 135.891724,47.892391 136.955063,48.669174 
z"/>
<path fill="#672CA7" opacity="1.000000" stroke="none" 
	d="
M158.343643,134.928955 
	C157.844650,134.503540 157.645905,133.922119 157.195923,133.154236 
	C157.436722,132.720139 157.928772,132.472488 158.420807,132.224823 
	C158.495163,133.074188 158.569534,133.923569 158.343643,134.928955 
z"/>
<path fill="#672CA7" opacity="1.000000" stroke="none" 
	d="
M146.333710,148.068405 
	C146.503143,147.778397 146.976654,147.429230 147.761749,147.068832 
	C147.594803,147.374802 147.116287,147.692017 146.333710,148.068405 
z"/>
<path fill="#672CA7" opacity="1.000000" stroke="none" 
	d="
M146.670441,142.938232 
	C146.504852,143.225266 146.039429,143.573578 145.266907,143.934631 
	C145.430069,143.631424 145.900330,143.315460 146.670441,142.938232 
z"/>
<path fill="#672CA7" opacity="1.000000" stroke="none" 
	d="
M152.311508,142.918732 
	C152.226959,142.484497 152.420868,141.914627 152.883682,141.190094 
	C152.965057,141.617981 152.777512,142.200562 152.311508,142.918732 
z"/>
<path fill="#672CA7" opacity="1.000000" stroke="none" 
	d="
M152.663391,135.081207 
	C152.761902,135.515472 152.582840,136.083054 152.140137,136.807251 
	C152.046249,136.380768 152.216034,135.797653 152.663391,135.081207 
z"/>
<path fill="#682CA5" opacity="1.000000" stroke="none" 
	d="
M75.659370,48.964127 
	C75.497948,49.257988 75.033539,49.595104 74.266396,49.946419 
	C74.427902,49.642872 74.892136,49.325123 75.659370,48.964127 
z"/>
<path fill="#682CA5" opacity="1.000000" stroke="none" 
	d="
M73.732635,50.049210 
	C73.873558,50.290821 73.684891,50.557663 73.179161,50.866257 
	C73.134743,50.695442 73.315063,50.417583 73.732635,50.049210 
z"/>
<path fill="#672CA7" opacity="1.000000" stroke="none" 
	d="
M153.722931,134.022202 
	C153.774124,134.201599 153.586212,134.473495 153.169617,134.851715 
	C153.121902,134.676941 153.302856,134.395828 153.722931,134.022202 
z"/>
<path fill="#682CA5" opacity="1.000000" stroke="none" 
	d="
M68.728577,53.163246 
	C68.841476,53.443577 68.641014,53.656246 68.166679,53.883133 
	C67.987816,53.597622 68.161957,53.330364 68.728577,53.163246 
z"/>
<path fill="#672CA7" opacity="1.000000" stroke="none" 
	d="
M156.266083,137.965759 
	C156.096054,137.751480 156.233505,137.497437 156.628540,137.159927 
	C156.928329,137.399979 156.824127,137.683151 156.266083,137.965759 
z"/>
<path fill="#672CA7" opacity="1.000000" stroke="none" 
	d="
M155.272964,139.016144 
	C155.221329,138.844742 155.404160,138.557312 155.817566,138.151093 
	C155.867889,138.321564 155.687668,138.610840 155.272964,139.016144 
z"/>
<path fill="#682CA5" opacity="1.000000" stroke="none" 
	d="
M67.730865,54.049149 
	C67.875237,54.284004 67.697426,54.547283 67.210434,54.853806 
	C67.036385,54.608006 67.205536,54.334846 67.730865,54.049149 
z"/>
<path fill="#682CA5" opacity="1.000000" stroke="none" 
	d="
M66.724655,55.071892 
	C66.864716,55.314869 66.679848,55.571545 66.184822,55.862724 
	C66.022850,55.615967 66.197868,55.345421 66.724655,55.071892 
z"/>
<path fill="#672CA7" opacity="1.000000" stroke="none" 
	d="
M144.713165,144.031525 
	C144.767853,144.220871 144.576630,144.488907 144.156036,144.858093 
	C144.106857,144.676239 144.287048,144.393234 144.713165,144.031525 
z"/>
<path fill="#672CA7" opacity="1.000000" stroke="none" 
	d="
M149.288467,145.980377 
	C149.240646,145.795471 149.438293,145.521225 149.872559,145.145325 
	C149.917435,145.326141 149.725677,145.608597 149.288467,145.980377 
z"/>
<path fill="#672CA7" opacity="1.000000" stroke="none" 
	d="
M148.283463,146.992462 
	C148.228012,146.806229 148.417862,146.531219 148.838989,146.149475 
	C148.889755,146.329727 148.709259,146.616714 148.283463,146.992462 
z"/>
<path fill="#682CA5" opacity="1.000000" stroke="none" 
	d="
M65.716850,56.045841 
	C65.764702,56.231659 65.567108,56.498375 65.137505,56.866142 
	C65.094124,56.687038 65.282761,56.406887 65.716850,56.045841 
z"/>
</svg>